# xmcd
#
# Track frame offsets:
#	150
#	29616
#	47833
#	72663
#	100996
#	119714
#	150809
#	171167
#	192717
#	219185
#	241261
#	261441
#	282968
#	309392
#
# Disc length: 4703 seconds
#
# Revision: 2
# Processed by: cddbd v1.5.2PL0 Copyright (c) Steve Scherf et al.
# Submitted via: EZCDAudioConverter 8.0.2.1
#
DISCID=d1125d0e
DTITLE=Various Artist - Huế
DYEAR=2008
DGENRE=Pop
TTITLE0=Hợp Ca - Qua miền Trung
TTITLE1=Mai Thiên Vân - Tiếng sông Hương
TTITLE2=Trần Thái Hòa - Trở về
TTITLE3=Họa Mi, Ý Lan - Tâm tình gởi Huế, Trở về Huế
TTITLE4=Quang Lê - Chuyện một chiêc cầu đã gãy
TTITLE5=Ngọc Hạ - Đêm tàn Bến Ngự 
TTITLE6=Hương Lan - Mắt Huế xưa
TTITLE7=Như Quỳnh - Huế buồn
TTITLE8=Hoàng Oanh - Mong chờ
TTITLE9=Ngọc Hạ, Quang Lê - Ai ra xứ Huế
TTITLE10=Mai Quốc Huy - Bao giờ em quên
TTITLE11=Duy Trường, Quỳnh Dung - Quen nhau trên đường về
TTITLE12=Hoàng Oanh, Hà Thanh - Thương về xứ Huế
TTITLE13=Quang Lê, Khánh Ly - Những con đường trắng, Bài ca dành cho những xác
TTITLE13=người
EXTD=
EXTT0=
EXTT1=
EXTT2=
EXTT3=
EXTT4=
EXTT5=
EXTT6=
EXTT7=
EXTT8=
EXTT9=
EXTT10=
EXTT11=
EXTT12=
EXTT13=
PLAYORDER=
